<svg xmlns="http://www.w3.org/2000/svg" viewBox="0 0 900 360" role="img" aria-label="Premium driver dashboard background">
  <defs>
    <linearGradient id="bg" x1="0" y1="0" x2="1" y2="1">
      <stop offset="0" stop-color="#061329"/>
      <stop offset=".48" stop-color="#08285a"/>
      <stop offset="1" stop-color="#020814"/>
    </linearGradient>
    <radialGradient id="blue" cx=".7" cy=".34" r=".45">
      <stop offset="0" stop-color="#156bff" stop-opacity=".34"/>
      <stop offset="1" stop-color="#156bff" stop-opacity="0"/>
    </radialGradient>
  </defs>
  <rect width="900" height="360" fill="url(#bg)"/>
  <rect width="900" height="360" fill="url(#blue)"/>
  <path d="M0 267c124-51 256-70 396-57 111 10 210 38 323 26 74-8 134-28 181-58v182H0Z" fill="#020814" opacity=".42"/>
  <path d="M0 300c151-34 297-32 438 7 186 51 340 42 462-27v80H0Z" fill="#020814" opacity=".64"/>
  <path d="M518 74c79-20 172-11 263 23" fill="none" stroke="#7cb5ff" stroke-width="3" stroke-opacity=".16"/>
  <path d="M456 230c154-31 293-17 417 43" fill="none" stroke="#ffffff" stroke-width="5" stroke-opacity=".08"/>
  <path d="M585 288c89 16 172 9 251-22" fill="none" stroke="#1d75ff" stroke-width="8" stroke-opacity=".18"/>
  <g opacity=".5">
    <circle cx="604" cy="126" r="4" fill="#ffd285"/>
    <circle cx="663" cy="112" r="3" fill="#ffd285"/>
    <circle cx="722" cy="133" r="3" fill="#ffd285"/>
    <circle cx="781" cy="119" r="4" fill="#ffd285"/>
  </g>
</svg>
