<svg xmlns="http://www.w3.org/2000/svg" viewBox="0 0 360 360" role="img" aria-label="Steering wheel">
  <defs>
    <radialGradient id="outer" cx=".5" cy=".43" r=".58">
      <stop offset="0" stop-color="#244977"/>
      <stop offset=".58" stop-color="#10284d"/>
      <stop offset="1" stop-color="#020914"/>
    </radialGradient>
    <linearGradient id="rim" x1="0" y1="0" x2="1" y2="1">
      <stop offset="0" stop-color="#7faeff"/>
      <stop offset=".28" stop-color="#173963"/>
      <stop offset=".62" stop-color="#061630"/>
      <stop offset="1" stop-color="#477ed3"/>
    </linearGradient>
    <filter id="shadow" x="-20%" y="-20%" width="140%" height="140%">
      <feDropShadow dx="0" dy="18" stdDeviation="18" flood-color="#000814" flood-opacity=".48"/>
    </filter>
  </defs>
  <g filter="url(#shadow)">
    <circle cx="180" cy="180" r="145" fill="none" stroke="url(#rim)" stroke-width="31"/>
    <circle cx="180" cy="180" r="111" fill="none" stroke="#0a2448" stroke-width="7" opacity=".9"/>
    <path d="M71 179c32 0 68 9 88 33 9 11 13 27 15 53" fill="none" stroke="#1b477b" stroke-width="29" stroke-linecap="round"/>
    <path d="M289 179c-32 0-68 9-88 33-9 11-13 27-15 53" fill="none" stroke="#1b477b" stroke-width="29" stroke-linecap="round"/>
    <path d="M130 286c18-38 32-57 50-57s32 19 50 57" fill="none" stroke="#12345f" stroke-width="33" stroke-linecap="round"/>
    <circle cx="180" cy="180" r="49" fill="url(#outer)" stroke="#4978b5" stroke-width="5"/>
    <path d="M158 191h44l-22-42Z" fill="#dceaff" opacity=".88"/>
    <path d="M78 150c23-58 67-89 132-91" fill="none" stroke="#dbeaff" stroke-width="7" stroke-linecap="round" opacity=".2"/>
  </g>
</svg>
