<svg xmlns="http://www.w3.org/2000/svg" viewBox="0 0 640 320" role="img" aria-label="GARDAŞ Ride premium sedan">
  <defs>
    <linearGradient id="body" x1="0" y1="0" x2="1" y2="1">
      <stop offset="0" stop-color="#ffffff"/>
      <stop offset=".38" stop-color="#f3f7ff"/>
      <stop offset=".68" stop-color="#c9d7eb"/>
      <stop offset="1" stop-color="#eef4ff"/>
    </linearGradient>
    <linearGradient id="lower" x1="0" y1="0" x2="1" y2="0">
      <stop offset="0" stop-color="#d7e2f2"/>
      <stop offset=".5" stop-color="#ffffff"/>
      <stop offset="1" stop-color="#9fb4cf"/>
    </linearGradient>
    <linearGradient id="glass" x1="0" y1="0" x2="1" y2="1">
      <stop offset="0" stop-color="#1c5ba5"/>
      <stop offset=".38" stop-color="#0c2d5c"/>
      <stop offset="1" stop-color="#050d1d"/>
    </linearGradient>
    <linearGradient id="chrome" x1="0" y1="0" x2="1" y2="0">
      <stop offset="0" stop-color="#eef6ff"/>
      <stop offset=".45" stop-color="#7f94ad"/>
      <stop offset="1" stop-color="#f7fbff"/>
    </linearGradient>
    <radialGradient id="halo" cx=".52" cy=".56" r=".52">
      <stop offset="0" stop-color="#156bff" stop-opacity=".18"/>
      <stop offset="1" stop-color="#156bff" stop-opacity="0"/>
    </radialGradient>
    <filter id="softShadow" x="-20%" y="-30%" width="140%" height="160%">
      <feDropShadow dx="0" dy="22" stdDeviation="18" flood-color="#08234c" flood-opacity=".22"/>
    </filter>
  </defs>

  <rect width="640" height="320" rx="34" fill="url(#halo)"/>
  <ellipse cx="325" cy="252" rx="250" ry="28" fill="#071b38" opacity=".13"/>

  <g filter="url(#softShadow)">
    <path d="M76 204c13-30 34-48 64-54l82-18 62-45c22-16 49-25 78-26l71-3c38-2 73 13 97 42l54 65c28 5 44 22 48 50l3 23H51v-8c0-16 9-24 25-26Z" fill="url(#body)" stroke="#ffffff" stroke-width="4"/>
    <path d="M101 198c98 11 271 14 493-9 20 7 32 23 36 49H55c-2-16 12-35 46-40Z" fill="url(#lower)" opacity=".92"/>
    <path d="M217 136l55-39c20-14 43-22 69-23l80-3c29-1 54 10 75 32l46 49-325-16Z" fill="url(#glass)"/>
    <path d="M248 133l45-29c16-10 34-16 54-17l22-1-8 58-113-11Z" fill="#16437f"/>
    <path d="M386 85l34-1c23 0 43 9 61 26l33 35-142-1 14-59Z" fill="#071b38"/>
    <path d="M212 136c99 14 205 16 326 5" fill="none" stroke="#ffffff" stroke-width="5" stroke-opacity=".72" stroke-linecap="round"/>
    <path d="M101 199h86c12 0 19 11 15 23H73c5-13 15-21 28-23Z" fill="#eff6ff"/>
    <path d="M515 193h71c16 4 27 14 34 29H500c-2-12 3-23 15-29Z" fill="#dfe9f7"/>
    <path d="M226 170h190" stroke="#8297b3" stroke-width="6" stroke-linecap="round" stroke-opacity=".28"/>
    <path d="M456 158h54" stroke="#0d58dc" stroke-width="8" stroke-linecap="round" opacity=".72"/>
    <path d="M79 184h44" stroke="#8ec0ff" stroke-width="8" stroke-linecap="round"/>
    <path d="M285 177h28m83-2h28" stroke="#5e718a" stroke-width="5" stroke-linecap="round" opacity=".38"/>
    <path d="M155 216h346" stroke="#647990" stroke-width="5" stroke-linecap="round" opacity=".22"/>
    <circle cx="169" cy="241" r="41" fill="#061225"/>
    <circle cx="169" cy="241" r="29" fill="#172b49"/>
    <circle cx="169" cy="241" r="15" fill="url(#chrome)"/>
    <circle cx="169" cy="241" r="6" fill="#315f9d"/>
    <circle cx="500" cy="241" r="41" fill="#061225"/>
    <circle cx="500" cy="241" r="29" fill="#172b49"/>
    <circle cx="500" cy="241" r="15" fill="url(#chrome)"/>
    <circle cx="500" cy="241" r="6" fill="#315f9d"/>
    <path d="M292 196c48 7 94 6 138-3" fill="none" stroke="#0a1d37" stroke-width="4" stroke-opacity=".22" stroke-linecap="round"/>
    <path d="M284 194c-18 11-38 17-60 19" stroke="#0a1d37" stroke-width="4" stroke-linecap="round" stroke-opacity=".18"/>
    <path d="M432 188c22 6 43 8 63 6" stroke="#0a1d37" stroke-width="4" stroke-linecap="round" stroke-opacity=".2"/>
  </g>
</svg>
